<?xml version="1.0"?>
<svg width="24" height="24" xmlns="http://www.w3.org/2000/svg" xmlns:svg="http://www.w3.org/2000/svg">
 <g class="layer">
  <title>Layer 1</title>
  <path d="m0,0l24,0l0,24l-24,0l0,-24z" fill="none" id="svg_1"/>
  <path d="m9.34,22.88l0,-5.52l4.34,0l0,5.52c0,0.61 0.49,1.1 1.09,1.1l3.26,0c0.6,0 1.09,-0.5 1.09,-1.1l0,-7.73l1.84,0c0.5,0 0.74,-0.63 0.36,-0.96l-9.07,-8.32c-0.41,-0.38 -1.04,-0.38 -1.45,0l-9.07,8.32c-0.37,0.33 -0.14,0.96 0.36,0.96l1.84,0l0,7.73c0,0.61 0.49,1.1 1.09,1.1l3.26,0c0.6,0 1.09,-0.5 1.09,-1.1z" fill="url(#svg_3)" id="svg_2"/>
 </g>
 <defs>
  <linearGradient id="svg_3" spreadMethod="repeat">
   <stop id="jq_stop_7096" offset="1" stop-color="#ffffff"/>
   <stop id="jq_stop_1439" offset="1" stop-color="#000000"/>
  </linearGradient>
 </defs>
</svg>